<svg xmlns="http://www.w3.org/2000/svg" width="16" height="16" fill="none" xmlns:v="https://vecta.io/nano"><path d="M8 0a8 8 0 1 0 0 16A8 8 0 1 0 8 0zM6.242 3.759a30.29 30.29 0 0 1 1.759-.026H8l1.759.026s.764.093 1.036.198c.281.109.518.255.755.492a2.09 2.09 0 0 1 .492.756c.105.271.177.581.198 1.036L12.266 8l-.026 1.759c-.021.454-.093.764-.198 1.036a2.09 2.09 0 0 1-.492.756c-.237.237-.475.383-.755.492-.271.105-.582.177-1.036.198L8 12.267c-1.159 0-1.304-.005-1.759-.026s-.764-.093-1.036-.198a2.09 2.09 0 0 1-.756-.492 2.09 2.09 0 0 1-.492-.756c-.105-.271-.177-.581-.198-1.036L3.733 8l.027-1.76c.02-.454.092-.764.198-1.036a2.09 2.09 0 0 1 .492-.756 2.09 2.09 0 0 1 .756-.492c.271-.106.581-.177 1.036-.198zm1.373.744h.241.142l1.724.025c.416.019.642.089.792.147a1.32 1.32 0 0 1 .49.319 1.32 1.32 0 0 1 .319.491c.058.15.128.376.147.792L11.496 8l-.025 1.724c-.019.416-.089.642-.147.792a1.32 1.32 0 0 1-.319.49 1.32 1.32 0 0 1-.49.319c-.15.059-.376.128-.792.147l-1.724.025c-1.139 0-1.274-.005-1.724-.025-.416-.019-.642-.089-.792-.147a1.32 1.32 0 0 1-.491-.319c-.149-.149-.242-.291-.319-.49-.058-.15-.128-.376-.147-.792L4.5 7.999l.025-1.724c.019-.416.089-.642.147-.792a1.32 1.32 0 0 1 .319-.491 1.32 1.32 0 0 1 .491-.319c.15-.059.376-.128.792-.147l1.341-.024v.001zm2.66.709a.512.512 0 1 0 0 1.024.512.512 0 1 0 0-1.024h0zM5.807 8.001a2.191 2.191 0 1 1 4.382 0 2.191 2.191 0 1 1-4.382 0z" fill-rule="evenodd" fill="#f2f2f2"/><path d="M8 6.578c.785 0 1.422.637 1.422 1.422S8.786 9.423 8 9.423 6.578 8.786 6.578 8 7.215 6.578 8 6.578z" fill="#f2f2f2"/></svg>