<svg xmlns="http://www.w3.org/2000/svg" width="150" height="55" viewBox="0 0 106 39" fill="#fff" xmlns:v="https://vecta.io/nano"><path d="M23.16.72h11.56v2.16h-4.54V15h-2.5V2.88h-4.52V.72zm10.66 3.94h2.14v2H36a2.4 2.4 0 0 1 .38-.82 3.97 3.97 0 0 1 .7-.72 3.55 3.55 0 0 1 .92-.54 2.73 2.73 0 0 1 1.02-.2l.54.02.32.04v2.2l-.5-.06a2.88 2.88 0 0 0-.48-.04c-.387 0-.753.08-1.1.24a2.38 2.38 0 0 0-.88.68c-.253.293-.453.66-.6 1.1s-.22.947-.22 1.52V15h-2.28V4.66zM40.511.72h2.28v2.16h-2.28V.72zm0 3.94h2.28V15h-2.28V4.66zm4.424 0h2.16v1.4h.04c.32-.6.767-1.027 1.34-1.28.573-.267 1.193-.4 1.86-.4.813 0 1.52.147 2.12.44A4.04 4.04 0 0 1 53.975 6c.4.493.7 1.073.9 1.74s.3 1.38.3 2.14a7.32 7.32 0 0 1-.28 2.02c-.173.653-.447 1.233-.82 1.74-.36.493-.82.893-1.38 1.2-.56.293-1.22.44-1.98.44a5.06 5.06 0 0 1-1-.1 3.97 3.97 0 0 1-.96-.28 4.24 4.24 0 0 1-.86-.5 3.08 3.08 0 0 1-.64-.74h-.04v5.16h-2.28V4.66zm7.96 5.18c0-.467-.06-.92-.18-1.36a3.57 3.57 0 0 0-.54-1.16c-.24-.347-.54-.62-.9-.82-.36-.213-.773-.32-1.24-.32-.96 0-1.687.333-2.18 1-.48.667-.72 1.553-.72 2.66 0 .52.06 1.007.18 1.46.133.44.327.82.58 1.14a2.88 2.88 0 0 0 .9.76 2.65 2.65 0 0 0 1.24.28c.52 0 .96-.107 1.32-.32s.653-.487.88-.82a3.23 3.23 0 0 0 .5-1.16 5.67 5.67 0 0 0 .16-1.34zM56.762.72h2.28V15h-2.28V.72zm11.464 8.2c-.027-.36-.107-.707-.24-1.04a2.44 2.44 0 0 0-.52-.86 2.26 2.26 0 0 0-.8-.6c-.307-.16-.653-.24-1.04-.24a2.7 2.7 0 0 0-1.1.22c-.32.133-.6.327-.84.58a3 3 0 0 0-.56.86 3.18 3.18 0 0 0-.22 1.08h5.32zm-5.32 1.5a4.2 4.2 0 0 0 .16 1.16c.12.373.293.7.52.98a2.56 2.56 0 0 0 .86.68c.347.16.76.24 1.24.24.667 0 1.2-.14 1.6-.42.413-.293.72-.727.92-1.3h2.16a4.3 4.3 0 0 1-.62 1.5 4.47 4.47 0 0 1-1.06 1.12c-.413.293-.88.513-1.4.66-.507.16-1.04.24-1.6.24-.813 0-1.533-.133-2.16-.4s-1.16-.64-1.6-1.12c-.427-.48-.753-1.053-.98-1.72a7.2 7.2 0 0 1-.32-2.2 6.3 6.3 0 0 1 .34-2.08 5.44 5.44 0 0 1 1-1.74 4.82 4.82 0 0 1 1.58-1.2c.613-.293 1.307-.44 2.08-.44.813 0 1.54.173 2.18.52.653.333 1.193.78 1.62 1.34s.733 1.207.92 1.94c.2.72.253 1.467.16 2.24h-7.6zM24.52 20.72H34.8v2.16h-7.78v3.74h7.2v2.04h-7.2v4.18h7.92V35H24.52V20.72zm13.598 10.96c.067.667.32 1.133.76 1.4s.967.4 1.58.4a7.29 7.29 0 0 0 .72-.04 3.52 3.52 0 0 0 .78-.2c.24-.093.433-.227.58-.4.16-.187.233-.427.22-.72s-.12-.533-.32-.72-.46-.333-.78-.44c-.307-.12-.66-.22-1.06-.3l-1.22-.26a12.09 12.09 0 0 1-1.24-.34 4.18 4.18 0 0 1-1.06-.54 2.57 2.57 0 0 1-.74-.86c-.187-.36-.28-.8-.28-1.32 0-.56.133-1.027.4-1.4a3.13 3.13 0 0 1 1.04-.92c.427-.24.893-.407 1.4-.5.52-.093 1.013-.14 1.48-.14a6.25 6.25 0 0 1 1.52.18 3.88 3.88 0 0 1 1.32.54 3.05 3.05 0 0 1 .98 1c.267.4.433.887.5 1.46h-2.38c-.107-.547-.36-.913-.76-1.1-.387-.187-.833-.28-1.34-.28a5.01 5.01 0 0 0-.58.04 2.5 2.5 0 0 0-.62.16c-.187.067-.347.173-.48.32-.133.133-.2.313-.2.54 0 .28.093.507.28.68.2.173.453.32.76.44.32.107.68.2 1.08.28l1.24.26a12.7 12.7 0 0 1 1.22.34c.4.133.753.313 1.06.54a2.48 2.48 0 0 1 .76.86c.2.347.3.773.3 1.28 0 .613-.14 1.133-.42 1.56a3.29 3.29 0 0 1-1.1 1.04 4.83 4.83 0 0 1-1.48.58 7.54 7.54 0 0 1-1.62.18c-.653 0-1.26-.073-1.82-.22-.547-.147-1.027-.367-1.44-.66a3.52 3.52 0 0 1-.96-1.12c-.227-.453-.347-.987-.36-1.6h2.28zm8.311-7.02h2.16v1.4h.04c.32-.6.767-1.027 1.34-1.28.573-.267 1.193-.4 1.86-.4.813 0 1.52.147 2.12.44a4.04 4.04 0 0 1 1.52 1.18c.4.493.7 1.073.9 1.74s.3 1.38.3 2.14c0 .693-.093 1.367-.28 2.02a5.11 5.11 0 0 1-.82 1.74c-.36.493-.82.893-1.38 1.2-.56.293-1.22.44-1.98.44a5.06 5.06 0 0 1-1-.1 3.97 3.97 0 0 1-.96-.28 4.26 4.26 0 0 1-.86-.5c-.253-.213-.467-.46-.64-.74h-.04v5.16h-2.28V24.66zm7.96 5.18c0-.467-.06-.92-.18-1.36a3.57 3.57 0 0 0-.54-1.16c-.24-.347-.54-.62-.9-.82-.36-.213-.773-.32-1.24-.32-.96 0-1.687.333-2.18 1-.48.667-.72 1.553-.72 2.66 0 .52.06 1.007.18 1.46.133.44.327.82.58 1.14a2.88 2.88 0 0 0 .9.76 2.65 2.65 0 0 0 1.24.28c.52 0 .96-.107 1.32-.32a2.73 2.73 0 0 0 .88-.82c.24-.347.407-.733.5-1.16a5.65 5.65 0 0 0 .16-1.34zm3.806-5.18h2.14v2h.04a2.4 2.4 0 0 1 .38-.82 3.97 3.97 0 0 1 .7-.72 3.55 3.55 0 0 1 .92-.54 2.73 2.73 0 0 1 1.02-.2l.54.02.32.04v2.2l-.5-.06a2.91 2.91 0 0 0-.48-.04c-.387 0-.753.08-1.1.24a2.38 2.38 0 0 0-.88.68c-.253.293-.453.66-.6 1.1s-.22.947-.22 1.52V35h-2.28V24.66zm13.38 4.26c-.027-.36-.107-.707-.24-1.04a2.44 2.44 0 0 0-.52-.86 2.26 2.26 0 0 0-.8-.6c-.307-.16-.653-.24-1.04-.24a2.7 2.7 0 0 0-1.1.22c-.32.133-.6.327-.84.58a3 3 0 0 0-.56.86c-.133.333-.207.693-.22 1.08h5.32zm-5.32 1.5a4.2 4.2 0 0 0 .16 1.16c.12.373.293.7.52.98a2.56 2.56 0 0 0 .86.68c.347.16.76.24 1.24.24.667 0 1.2-.14 1.6-.42.413-.293.72-.727.92-1.3h2.16a4.3 4.3 0 0 1-.62 1.5 4.47 4.47 0 0 1-1.06 1.12c-.413.293-.88.513-1.4.66-.507.16-1.04.24-1.6.24-.813 0-1.533-.133-2.16-.4s-1.16-.64-1.6-1.12c-.427-.48-.753-1.053-.98-1.72a7.2 7.2 0 0 1-.32-2.2 6.3 6.3 0 0 1 .34-2.08 5.44 5.44 0 0 1 1-1.74 4.82 4.82 0 0 1 1.58-1.2c.613-.293 1.307-.44 2.08-.44.813 0 1.54.173 2.18.52.653.333 1.193.78 1.62 1.34s.733 1.207.92 1.94c.2.72.253 1.467.16 2.24h-7.6zm10.653 1.26c.067.667.32 1.133.76 1.4s.967.4 1.58.4c.213 0 .453-.013.72-.04a3.52 3.52 0 0 0 .78-.2c.24-.093.433-.227.58-.4.16-.187.233-.427.22-.72s-.12-.533-.32-.72-.46-.333-.78-.44c-.307-.12-.66-.22-1.06-.3l-1.22-.26a12.06 12.06 0 0 1-1.24-.34c-.387-.133-.74-.313-1.06-.54-.307-.227-.553-.513-.74-.86-.187-.36-.28-.8-.28-1.32 0-.56.133-1.027.4-1.4a3.13 3.13 0 0 1 1.04-.92c.427-.24.893-.407 1.4-.5.52-.093 1.013-.14 1.48-.14a6.25 6.25 0 0 1 1.52.18 3.9 3.9 0 0 1 1.32.54 3.05 3.05 0 0 1 .98 1c.267.4.433.887.5 1.46h-2.38c-.107-.547-.36-.913-.76-1.1-.387-.187-.833-.28-1.34-.28a5.01 5.01 0 0 0-.58.04c-.213.027-.42.08-.62.16a1.17 1.17 0 0 0-.48.32c-.133.133-.2.313-.2.54 0 .28.093.507.28.68.2.173.453.32.76.44.32.107.68.2 1.08.28l1.24.26a12.73 12.73 0 0 1 1.22.34c.4.133.753.313 1.06.54a2.48 2.48 0 0 1 .76.86c.2.347.3.773.3 1.28 0 .613-.14 1.133-.42 1.56a3.29 3.29 0 0 1-1.1 1.04 4.83 4.83 0 0 1-1.48.58 7.54 7.54 0 0 1-1.62.18c-.653 0-1.26-.073-1.82-.22a4.46 4.46 0 0 1-1.44-.66 3.52 3.52 0 0 1-.96-1.12c-.227-.453-.347-.987-.36-1.6h2.28zm9.971 0c.067.667.32 1.133.76 1.4s.967.4 1.58.4a7.29 7.29 0 0 0 .72-.04 3.52 3.52 0 0 0 .78-.2c.24-.093.433-.227.58-.4.16-.187.233-.427.22-.72s-.12-.533-.32-.72-.46-.333-.78-.44c-.307-.12-.66-.22-1.06-.3l-1.22-.26a12.09 12.09 0 0 1-1.24-.34 4.18 4.18 0 0 1-1.06-.54 2.57 2.57 0 0 1-.74-.86c-.187-.36-.28-.8-.28-1.32 0-.56.133-1.027.4-1.4a3.13 3.13 0 0 1 1.04-.92c.427-.24.893-.407 1.4-.5.52-.093 1.013-.14 1.48-.14a6.25 6.25 0 0 1 1.52.18 3.88 3.88 0 0 1 1.32.54 3.05 3.05 0 0 1 .98 1c.267.4.433.887.5 1.46h-2.38c-.107-.547-.36-.913-.76-1.1-.387-.187-.833-.28-1.34-.28a5.01 5.01 0 0 0-.58.04c-.213.027-.42.08-.62.16a1.17 1.17 0 0 0-.48.32c-.133.133-.2.313-.2.54 0 .28.093.507.28.68.2.173.453.32.76.44.32.107.68.2 1.08.28l1.24.26a12.73 12.73 0 0 1 1.22.34c.4.133.753.313 1.06.54a2.48 2.48 0 0 1 .76.86c.2.347.3.773.3 1.28 0 .613-.14 1.133-.42 1.56a3.29 3.29 0 0 1-1.1 1.04 4.83 4.83 0 0 1-1.48.58 7.54 7.54 0 0 1-1.62.18c-.653 0-1.26-.073-1.82-.22-.547-.147-1.027-.367-1.44-.66a3.52 3.52 0 0 1-.96-1.12c-.227-.453-.347-.987-.36-1.6h2.28zm12.991 3.6c-.827 0-1.567-.133-2.22-.4a4.96 4.96 0 0 1-1.64-1.14c-.44-.48-.78-1.053-1.02-1.72a6.8 6.8 0 0 1-.34-2.2c0-.787.113-1.513.34-2.18.24-.667.58-1.24 1.02-1.72.453-.48 1-.853 1.64-1.12.653-.28 1.393-.42 2.22-.42s1.56.14 2.2.42c.654.267 1.2.64 1.64 1.12.454.48.794 1.053 1.02 1.72.24.667.36 1.393.36 2.18 0 .8-.12 1.533-.36 2.2-.226.667-.566 1.24-1.02 1.72-.44.48-.986.86-1.64 1.14-.64.267-1.373.4-2.2.4zm0-1.8c.507 0 .947-.107 1.32-.32s.68-.493.92-.84.414-.733.52-1.16a5.07 5.07 0 0 0 .18-1.34c0-.44-.06-.88-.18-1.32-.106-.44-.28-.827-.52-1.16a2.77 2.77 0 0 0-.92-.84c-.374-.213-.813-.32-1.32-.32s-.947.107-1.32.32a2.78 2.78 0 0 0-.92.84 3.57 3.57 0 0 0-.54 1.16 5.59 5.59 0 0 0-.16 1.32 5.67 5.67 0 0 0 .16 1.34c.12.427.3.813.54 1.16a2.78 2.78 0 0 0 .92.84c.373.213.813.32 1.32.32zM0 17.5C0 7.835 7.835 0 17.5 0v3.75C9.906 3.75 3.75 9.906 3.75 17.5S9.906 31.25 17.5 31.25V35C7.835 35 0 27.165 0 17.5z"/><path fill-rule="evenodd" d="M7.083 17.5A10.42 10.42 0 0 0 17.5 27.917V7.083A10.42 10.42 0 0 0 7.083 17.5zm3.75 0a6.67 6.67 0 0 0 6.667 6.667V10.833a6.67 6.67 0 0 0-6.667 6.667z"/><path d="M17.5 14.583v5.833a2.92 2.92 0 0 1-2.917-2.917 2.92 2.92 0 0 1 2.917-2.917z"/></svg>